# xmcd
#
# Track frame offsets: 
#        188
#        12263
#        24063
#        41525
#        54350
#        64988
#        83400
#        96413
#        108013
#        123000
#        140613
#        156600
#        165788
#        183738
#        200988
#        216938
#
# Disc length: 3063 seconds
#
# Revision: 1
# Processed by: cddbd v1.5.2PL0 Copyright (c) Steve Scherf et al.
# Submitted via: ExactAudioCopy v0.99pb5
#
DISCID=d30bf510
DTITLE=Various Artist - The American Dream - 32 Country und Western Hits - CD
DTITLE=2
DYEAR=1992
DGENRE=Country
TTITLE0=Restless Heart - You can depend on me
TTITLE1=Hank Williams Jr. - Dixie on my mind
TTITLE2=Don Schlitz - The gambler
TTITLE3=Western Union - East bound and down
TTITLE4=Mel McDaniel - Louisiana Saturday night
TTITLE5=Ronnie Milsap - When the hurt comes down
TTITLE6=Barbara Mandrell - I wish that I could fall in love today
TTITLE7=Thom Pace - Maybe
TTITLE8=Waylon Jennings - Luckenbach, Texas (back to the basics of lov
TTITLE8=e)
TTITLE9=Steinar Albrigtsen - Till the morning comes
TTITLE10=Bill Anderson - Nashville mirrors
TTITLE11=Frankie Laine - Rawhide
TTITLE12=Bellamy Brothers - Neon cowboy
TTITLE13=Brenda Lee - Broken trust
TTITLE14=Randy Travis - Forever and ever, amen
TTITLE15=Keith Whitley - The Birmingham turnaround
EXTD=
EXTT0=
EXTT1=
EXTT2=
EXTT3=
EXTT4=
EXTT5=
EXTT6=
EXTT7=
EXTT8=
EXTT9=
EXTT10=
EXTT11=
EXTT12=
EXTT13=
EXTT14=
EXTT15=
PLAYORDER=
